<svg width="58" height="31" viewBox="0 0 58 31" fill="none" xmlns="http://www.w3.org/2000/svg">
<g id="button">
<rect width="58" height="31" rx="5" fill="#282B32"/>
<g id="contents">
<path id="1 PM" d="M9.44 12V6.46L8.29 6.73V5.75L9.98 5H10.77V12H9.44ZM14.5101 12V5H17.1001C17.6601 5 18.1234 5.09333 18.4901 5.28C18.8567 5.46667 19.1301 5.72333 19.3101 6.05C19.4901 6.37667 19.5801 6.74333 19.5801 7.15C19.5801 7.53667 19.4934 7.89333 19.3201 8.22C19.1467 8.54 18.8767 8.8 18.5101 9C18.1434 9.19333 17.6734 9.29 17.1001 9.29H15.7901V12H14.5101ZM15.7901 8.25H17.0201C17.4667 8.25 17.7867 8.15333 17.9801 7.96C18.1801 7.76 18.2801 7.49 18.2801 7.15C18.2801 6.80333 18.1801 6.53333 17.9801 6.34C17.7867 6.14 17.4667 6.04 17.0201 6.04H15.7901V8.25ZM20.5843 12V5H22.1043L24.3343 9.44L26.5343 5H28.0543V12H26.7743V7.17L24.8243 11H23.8143L21.8643 7.17V12H20.5843Z" fill="white"/>
<g id="oval/text">
<circle id="Ellipse 21" cx="11" cy="22.5" r="3" fill="#2884FF"/>
<path id="157k" d="M18.44 26V20.46L17.29 20.73V19.75L18.98 19H19.77V26H18.44ZM23.6373 26.12C23.1239 26.12 22.6806 26.03 22.3073 25.85C21.9406 25.67 21.6506 25.4233 21.4373 25.11C21.2306 24.79 21.1106 24.43 21.0773 24.03H22.3273C22.3873 24.3167 22.5339 24.5567 22.7673 24.75C23.0006 24.9367 23.2906 25.03 23.6373 25.03C24.0106 25.03 24.3139 24.8933 24.5473 24.62C24.7873 24.3467 24.9073 24.0067 24.9073 23.6C24.9073 23.18 24.7873 22.8467 24.5473 22.6C24.3139 22.3533 24.0173 22.23 23.6573 22.23C23.3573 22.23 23.0973 22.3033 22.8773 22.45C22.6573 22.5967 22.5006 22.78 22.4073 23H21.1773L21.7773 19H25.6573V20.12H22.7373L22.4173 21.74C22.5639 21.58 22.7639 21.45 23.0173 21.35C23.2706 21.2433 23.5539 21.19 23.8673 21.19C24.3673 21.19 24.7839 21.3033 25.1173 21.53C25.4506 21.75 25.7039 22.0433 25.8773 22.41C26.0506 22.77 26.1373 23.1633 26.1373 23.59C26.1373 24.0767 26.0306 24.51 25.8173 24.89C25.6106 25.27 25.3173 25.57 24.9373 25.79C24.5639 26.01 24.1306 26.12 23.6373 26.12ZM27.6405 26L30.2805 20.09H26.8305V19H31.6005V19.91L28.9705 26H27.6405ZM32.5523 26V18.8H33.8323V23.05L35.5923 21.04H37.1123L35.0823 23.3L37.4423 26H35.8423L33.8323 23.51V26H32.5523Z" fill="white"/>
</g>
</g>
</g>
</svg>
