<svg width="58" height="31" viewBox="0 0 58 31" fill="none" xmlns="http://www.w3.org/2000/svg">
<g id="button">
<rect width="58" height="31" rx="5" fill="#282B32"/>
<g id="contents">
<path id="2 PM" d="M8.51 12V11.07C8.93667 10.7167 9.35 10.3667 9.75 10.02C10.1567 9.67333 10.5167 9.33 10.83 8.99C11.15 8.65 11.4033 8.32 11.59 8C11.7833 7.67333 11.88 7.35667 11.88 7.05C11.88 6.76333 11.8 6.51 11.64 6.29C11.4867 6.07 11.23 5.96 10.87 5.96C10.5033 5.96 10.2267 6.08 10.04 6.32C9.85333 6.56 9.76 6.85 9.76 7.19H8.52C8.53333 6.67667 8.64667 6.25 8.86 5.91C9.07333 5.56333 9.35667 5.30667 9.71 5.14C10.0633 4.96667 10.46 4.88 10.9 4.88C11.6133 4.88 12.1667 5.07667 12.56 5.47C12.96 5.85667 13.16 6.36 13.16 6.98C13.16 7.36667 13.07 7.74333 12.89 8.11C12.7167 8.47667 12.4867 8.83 12.2 9.17C11.9133 9.51 11.6033 9.83 11.27 10.13C10.9367 10.4233 10.6133 10.6967 10.3 10.95H13.33V12H8.51ZM16.7757 12V5H19.3657C19.9257 5 20.389 5.09333 20.7557 5.28C21.1224 5.46667 21.3957 5.72333 21.5757 6.05C21.7557 6.37667 21.8457 6.74333 21.8457 7.15C21.8457 7.53667 21.759 7.89333 21.5857 8.22C21.4124 8.54 21.1424 8.8 20.7757 9C20.409 9.19333 19.939 9.29 19.3657 9.29H18.0557V12H16.7757ZM18.0557 8.25H19.2857C19.7324 8.25 20.0524 8.15333 20.2457 7.96C20.4457 7.76 20.5457 7.49 20.5457 7.15C20.5457 6.80333 20.4457 6.53333 20.2457 6.34C20.0524 6.14 19.7324 6.04 19.2857 6.04H18.0557V8.25ZM22.8499 12V5H24.3699L26.5999 9.44L28.7999 5H30.3199V12H29.0399V7.17L27.0899 11H26.0799L24.1299 7.17V12H22.8499Z" fill="white"/>
<g id="oval/text">
<circle id="Ellipse 21" cx="11" cy="22.5" r="3" fill="#2884FF"/>
<path id="123k" d="M18.44 26V20.46L17.29 20.73V19.75L18.98 19H19.77V26H18.44ZM20.9573 26V25.07C21.3839 24.7167 21.7973 24.3667 22.1973 24.02C22.6039 23.6733 22.9639 23.33 23.2773 22.99C23.5973 22.65 23.8506 22.32 24.0373 22C24.2306 21.6733 24.3273 21.3567 24.3273 21.05C24.3273 20.7633 24.2473 20.51 24.0873 20.29C23.9339 20.07 23.6773 19.96 23.3173 19.96C22.9506 19.96 22.6739 20.08 22.4873 20.32C22.3006 20.56 22.2073 20.85 22.2073 21.19H20.9673C20.9806 20.6767 21.0939 20.25 21.3073 19.91C21.5206 19.5633 21.8039 19.3067 22.1573 19.14C22.5106 18.9667 22.9073 18.88 23.3473 18.88C24.0606 18.88 24.6139 19.0767 25.0073 19.47C25.4073 19.8567 25.6073 20.36 25.6073 20.98C25.6073 21.3667 25.5173 21.7433 25.3373 22.11C25.1639 22.4767 24.9339 22.83 24.6473 23.17C24.3606 23.51 24.0506 23.83 23.7173 24.13C23.3839 24.4233 23.0606 24.6967 22.7473 24.95H25.7773V26H20.9573ZM29.1302 26.12C28.6702 26.12 28.2535 26.04 27.8802 25.88C27.5068 25.7133 27.2068 25.46 26.9802 25.12C26.7535 24.78 26.6335 24.3533 26.6202 23.84H27.8802C27.8868 24.18 27.9968 24.4667 28.2102 24.7C28.4302 24.9267 28.7368 25.04 29.1302 25.04C29.5035 25.04 29.7902 24.9367 29.9902 24.73C30.1902 24.5233 30.2902 24.2633 30.2902 23.95C30.2902 23.5833 30.1568 23.3067 29.8902 23.12C29.6302 22.9267 29.2935 22.83 28.8802 22.83H28.3602V21.78H28.8902C29.2302 21.78 29.5135 21.7 29.7402 21.54C29.9668 21.38 30.0802 21.1433 30.0802 20.83C30.0802 20.57 29.9935 20.3633 29.8202 20.21C29.6535 20.05 29.4202 19.97 29.1202 19.97C28.7935 19.97 28.5368 20.0667 28.3502 20.26C28.1702 20.4533 28.0702 20.69 28.0502 20.97H26.8002C26.8268 20.3233 27.0502 19.8133 27.4702 19.44C27.8968 19.0667 28.4468 18.88 29.1202 18.88C29.6002 18.88 30.0035 18.9667 30.3302 19.14C30.6635 19.3067 30.9135 19.53 31.0802 19.81C31.2535 20.09 31.3402 20.4 31.3402 20.74C31.3402 21.1333 31.2302 21.4667 31.0102 21.74C30.7968 22.0067 30.5302 22.1867 30.2102 22.28C30.6035 22.36 30.9235 22.5533 31.1702 22.86C31.4168 23.16 31.5402 23.54 31.5402 24C31.5402 24.3867 31.4468 24.74 31.2602 25.06C31.0735 25.38 30.8002 25.6367 30.4402 25.83C30.0868 26.0233 29.6502 26.12 29.1302 26.12ZM32.7672 26V18.8H34.0472V23.05L35.8072 21.04H37.3272L35.2972 23.3L37.6572 26H36.0572L34.0472 23.51V26H32.7672Z" fill="white"/>
</g>
</g>
</g>
</svg>
