<svg width="58" height="31" viewBox="0 0 58 31" fill="none" xmlns="http://www.w3.org/2000/svg">
<g id="button">
<rect width="58" height="31" rx="5" fill="#282B32"/>
<g id="contents">
<path id="3 PM" d="M10.97 12.12C10.51 12.12 10.0933 12.04 9.72 11.88C9.34667 11.7133 9.04667 11.46 8.82 11.12C8.59333 10.78 8.47333 10.3533 8.46 9.84H9.72C9.72667 10.18 9.83667 10.4667 10.05 10.7C10.27 10.9267 10.5767 11.04 10.97 11.04C11.3433 11.04 11.63 10.9367 11.83 10.73C12.03 10.5233 12.13 10.2633 12.13 9.95C12.13 9.58333 11.9967 9.30667 11.73 9.12C11.47 8.92667 11.1333 8.83 10.72 8.83H10.2V7.78H10.73C11.07 7.78 11.3533 7.7 11.58 7.54C11.8067 7.38 11.92 7.14333 11.92 6.83C11.92 6.57 11.8333 6.36333 11.66 6.21C11.4933 6.05 11.26 5.97 10.96 5.97C10.6333 5.97 10.3767 6.06667 10.19 6.26C10.01 6.45333 9.91 6.69 9.89 6.97H8.64C8.66667 6.32333 8.89 5.81333 9.31 5.44C9.73667 5.06667 10.2867 4.88 10.96 4.88C11.44 4.88 11.8433 4.96667 12.17 5.14C12.5033 5.30667 12.7533 5.53 12.92 5.81C13.0933 6.09 13.18 6.4 13.18 6.74C13.18 7.13333 13.07 7.46667 12.85 7.74C12.6367 8.00667 12.37 8.18667 12.05 8.28C12.4433 8.36 12.7633 8.55333 13.01 8.86C13.2567 9.16 13.38 9.54 13.38 10C13.38 10.3867 13.2867 10.74 13.1 11.06C12.9133 11.38 12.64 11.6367 12.28 11.83C11.9267 12.0233 11.49 12.12 10.97 12.12ZM17.0198 12V5H19.6098C20.1698 5 20.6332 5.09333 20.9998 5.28C21.3665 5.46667 21.6398 5.72333 21.8198 6.05C21.9998 6.37667 22.0898 6.74333 22.0898 7.15C22.0898 7.53667 22.0032 7.89333 21.8298 8.22C21.6565 8.54 21.3865 8.8 21.0198 9C20.6532 9.19333 20.1832 9.29 19.6098 9.29H18.2998V12H17.0198ZM18.2998 8.25H19.5298C19.9765 8.25 20.2965 8.15333 20.4898 7.96C20.6898 7.76 20.7898 7.49 20.7898 7.15C20.7898 6.80333 20.6898 6.53333 20.4898 6.34C20.2965 6.14 19.9765 6.04 19.5298 6.04H18.2998V8.25ZM23.0941 12V5H24.6141L26.8441 9.44L29.0441 5H30.5641V12H29.2841V7.17L27.3341 11H26.3241L24.3741 7.17V12H23.0941Z" fill="white"/>
<g id="oval/text">
<circle id="Ellipse 21" cx="11" cy="22.5" r="3" fill="#2884FF"/>
<path id="162k" d="M18.44 26V20.46L17.29 20.73V19.75L18.98 19H19.77V26H18.44ZM23.7573 26.12C23.2306 26.12 22.7873 26.0233 22.4273 25.83C22.0673 25.6367 21.7773 25.3767 21.5573 25.05C21.3373 24.7233 21.1773 24.36 21.0773 23.96C20.9839 23.56 20.9373 23.15 20.9373 22.73C20.9373 21.95 21.0473 21.2733 21.2673 20.7C21.4873 20.12 21.8039 19.6733 22.2173 19.36C22.6306 19.04 23.1306 18.88 23.7173 18.88C24.1973 18.88 24.6039 18.9767 24.9373 19.17C25.2773 19.3567 25.5406 19.6033 25.7273 19.91C25.9139 20.2167 26.0239 20.5467 26.0573 20.9H24.8673C24.8073 20.5933 24.6773 20.3567 24.4773 20.19C24.2773 20.0233 24.0206 19.94 23.7073 19.94C23.2606 19.94 22.9006 20.1467 22.6273 20.56C22.3539 20.9667 22.2073 21.59 22.1873 22.43C22.3473 22.1567 22.5873 21.93 22.9073 21.75C23.2273 21.57 23.5839 21.48 23.9773 21.48C24.3639 21.48 24.7273 21.5733 25.0673 21.76C25.4073 21.9467 25.6806 22.21 25.8873 22.55C26.1006 22.89 26.2073 23.29 26.2073 23.75C26.2073 24.17 26.1039 24.56 25.8973 24.92C25.6973 25.28 25.4106 25.57 25.0373 25.79C24.6706 26.01 24.2439 26.12 23.7573 26.12ZM23.6873 25.02C24.0606 25.02 24.3673 24.9067 24.6073 24.68C24.8539 24.4467 24.9773 24.1533 24.9773 23.8C24.9773 23.4267 24.8539 23.1267 24.6073 22.9C24.3606 22.6733 24.0473 22.56 23.6673 22.56C23.4206 22.56 23.1973 22.6167 22.9973 22.73C22.8039 22.8367 22.6506 22.9833 22.5373 23.17C22.4239 23.35 22.3673 23.5533 22.3673 23.78C22.3673 24.14 22.4906 24.4367 22.7373 24.67C22.9906 24.9033 23.3073 25.02 23.6873 25.02ZM27.1682 26V25.07C27.5949 24.7167 28.0082 24.3667 28.4082 24.02C28.8149 23.6733 29.1749 23.33 29.4882 22.99C29.8082 22.65 30.0615 22.32 30.2482 22C30.4415 21.6733 30.5382 21.3567 30.5382 21.05C30.5382 20.7633 30.4582 20.51 30.2982 20.29C30.1449 20.07 29.8882 19.96 29.5282 19.96C29.1615 19.96 28.8849 20.08 28.6982 20.32C28.5115 20.56 28.4182 20.85 28.4182 21.19H27.1782C27.1915 20.6767 27.3049 20.25 27.5182 19.91C27.7315 19.5633 28.0149 19.3067 28.3682 19.14C28.7215 18.9667 29.1182 18.88 29.5582 18.88C30.2715 18.88 30.8249 19.0767 31.2182 19.47C31.6182 19.8567 31.8182 20.36 31.8182 20.98C31.8182 21.3667 31.7282 21.7433 31.5482 22.11C31.3749 22.4767 31.1449 22.83 30.8582 23.17C30.5715 23.51 30.2615 23.83 29.9282 24.13C29.5949 24.4233 29.2715 24.6967 28.9582 24.95H31.9882V26H27.1682ZM33.0211 26V18.8H34.3011V23.05L36.0611 21.04H37.5811L35.5511 23.3L37.9111 26H36.3111L34.3011 23.51V26H33.0211Z" fill="white"/>
</g>
</g>
</g>
</svg>
