<svg width="58" height="31" viewBox="0 0 58 31" fill="none" xmlns="http://www.w3.org/2000/svg">
<g id="button">
<rect width="58" height="31" rx="5" fill="#282B32"/>
<g id="contents">
<path id="4 PM" d="M11.88 12V10.7H8.43V9.68L11.71 5H13.16V9.59H14.08V10.7H13.16V12H11.88ZM9.8 9.59H11.96V6.41L9.8 9.59ZM17.4691 12V5H20.0591C20.6191 5 21.0824 5.09333 21.4491 5.28C21.8157 5.46667 22.0891 5.72333 22.2691 6.05C22.4491 6.37667 22.5391 6.74333 22.5391 7.15C22.5391 7.53667 22.4524 7.89333 22.2791 8.22C22.1057 8.54 21.8357 8.8 21.4691 9C21.1024 9.19333 20.6324 9.29 20.0591 9.29H18.7491V12H17.4691ZM18.7491 8.25H19.9791C20.4257 8.25 20.7457 8.15333 20.9391 7.96C21.1391 7.76 21.2391 7.49 21.2391 7.15C21.2391 6.80333 21.1391 6.53333 20.9391 6.34C20.7457 6.14 20.4257 6.04 19.9791 6.04H18.7491V8.25ZM23.5433 12V5H25.0633L27.2933 9.44L29.4933 5H31.0133V12H29.7333V7.17L27.7833 11H26.7733L24.8233 7.17V12H23.5433Z" fill="white"/>
<g id="oval/text">
<circle id="Ellipse 21" cx="11" cy="22.5" r="3" fill="#2884FF"/>
<path id="119k" d="M18.44 26V20.46L17.29 20.73V19.75L18.98 19H19.77V26H18.44ZM21.8873 26V20.46L20.7373 20.73V19.75L22.4273 19H23.2173V26H21.8873ZM26.9645 26.12C26.4779 26.12 26.0679 26.0267 25.7345 25.84C25.4012 25.6467 25.1412 25.3967 24.9545 25.09C24.7679 24.7833 24.6579 24.4533 24.6245 24.1H25.8145C25.8679 24.4067 25.9945 24.6433 26.1945 24.81C26.4012 24.9767 26.6612 25.06 26.9745 25.06C27.4212 25.06 27.7812 24.8567 28.0545 24.45C28.3279 24.0367 28.4745 23.41 28.4945 22.57C28.3345 22.8433 28.0912 23.07 27.7645 23.25C27.4445 23.43 27.0912 23.52 26.7045 23.52C26.3179 23.52 25.9545 23.4267 25.6145 23.24C25.2745 23.0533 24.9979 22.79 24.7845 22.45C24.5712 22.11 24.4645 21.71 24.4645 21.25C24.4645 20.83 24.5679 20.44 24.7745 20.08C24.9812 19.72 25.2679 19.43 25.6345 19.21C26.0012 18.99 26.4312 18.88 26.9245 18.88C27.4512 18.88 27.8945 18.9767 28.2545 19.17C28.6145 19.3633 28.9012 19.6233 29.1145 19.95C29.3345 20.2767 29.4912 20.64 29.5845 21.04C29.6845 21.44 29.7345 21.85 29.7345 22.27C29.7345 23.05 29.6245 23.73 29.4045 24.31C29.1912 24.8833 28.8745 25.33 28.4545 25.65C28.0412 25.9633 27.5445 26.12 26.9645 26.12ZM27.0045 22.44C27.2512 22.44 27.4745 22.3867 27.6745 22.28C27.8745 22.1667 28.0312 22.02 28.1445 21.84C28.2579 21.6533 28.3145 21.4467 28.3145 21.22C28.3145 20.86 28.1879 20.5633 27.9345 20.33C27.6879 20.0967 27.3745 19.98 26.9945 19.98C26.6212 19.98 26.3112 20.0967 26.0645 20.33C25.8179 20.5567 25.6945 20.8467 25.6945 21.2C25.6945 21.5733 25.8179 21.8733 26.0645 22.1C26.3112 22.3267 26.6245 22.44 27.0045 22.44ZM30.8824 26V18.8H32.1624V23.05L33.9224 21.04H35.4424L33.4124 23.3L35.7724 26H34.1724L32.1624 23.51V26H30.8824Z" fill="white"/>
</g>
</g>
</g>
</svg>
