<svg width="58" height="31" viewBox="0 0 58 31" fill="none" xmlns="http://www.w3.org/2000/svg">
<g id="button">
<rect width="58" height="31" rx="5" fill="#282B32"/>
<g id="contents">
<path id="5 PM" d="M11.19 12.12C10.6767 12.12 10.2333 12.03 9.86 11.85C9.49333 11.67 9.20333 11.4233 8.99 11.11C8.78333 10.79 8.66333 10.43 8.63 10.03H9.88C9.94 10.3167 10.0867 10.5567 10.32 10.75C10.5533 10.9367 10.8433 11.03 11.19 11.03C11.5633 11.03 11.8667 10.8933 12.1 10.62C12.34 10.3467 12.46 10.0067 12.46 9.6C12.46 9.18 12.34 8.84667 12.1 8.6C11.8667 8.35333 11.57 8.23 11.21 8.23C10.91 8.23 10.65 8.30333 10.43 8.45C10.21 8.59667 10.0533 8.78 9.96 9H8.73L9.33 5H13.21V6.12H10.29L9.97 7.74C10.1167 7.58 10.3167 7.45 10.57 7.35C10.8233 7.24333 11.1067 7.19 11.42 7.19C11.92 7.19 12.3367 7.30333 12.67 7.53C13.0033 7.75 13.2567 8.04333 13.43 8.41C13.6033 8.77 13.69 9.16333 13.69 9.59C13.69 10.0767 13.5833 10.51 13.37 10.89C13.1633 11.27 12.87 11.57 12.49 11.79C12.1167 12.01 11.6833 12.12 11.19 12.12ZM17.264 12V5H19.854C20.414 5 20.8773 5.09333 21.244 5.28C21.6107 5.46667 21.884 5.72333 22.064 6.05C22.244 6.37667 22.334 6.74333 22.334 7.15C22.334 7.53667 22.2473 7.89333 22.074 8.22C21.9007 8.54 21.6307 8.8 21.264 9C20.8973 9.19333 20.4273 9.29 19.854 9.29H18.544V12H17.264ZM18.544 8.25H19.774C20.2207 8.25 20.5407 8.15333 20.734 7.96C20.934 7.76 21.034 7.49 21.034 7.15C21.034 6.80333 20.934 6.53333 20.734 6.34C20.5407 6.14 20.2207 6.04 19.774 6.04H18.544V8.25ZM23.3382 12V5H24.8582L27.0882 9.44L29.2882 5H30.8082V12H29.5282V7.17L27.5782 11H26.5682L24.6182 7.17V12H23.3382Z" fill="white"/>
<g id="oval/text">
<circle id="Ellipse 21" cx="11" cy="22.5" r="3" fill="#2884FF"/>
<path id="148k" d="M18.44 26V20.46L17.29 20.73V19.75L18.98 19H19.77V26H18.44ZM24.3273 26V24.7H20.8773V23.68L24.1573 19H25.6073V23.59H26.5273V24.7H25.6073V26H24.3273ZM22.2473 23.59H24.4073V20.41L22.2473 23.59ZM30.0035 26.12C29.5235 26.12 29.0902 26.0367 28.7035 25.87C28.3168 25.6967 28.0068 25.4533 27.7735 25.14C27.5468 24.8267 27.4335 24.4633 27.4335 24.05C27.4335 23.6233 27.5435 23.25 27.7635 22.93C27.9902 22.61 28.2868 22.38 28.6535 22.24C28.3335 22.1 28.0802 21.9 27.8935 21.64C27.7068 21.3733 27.6135 21.0767 27.6135 20.75C27.6135 20.4167 27.7035 20.11 27.8835 19.83C28.0635 19.5433 28.3302 19.3133 28.6835 19.14C29.0435 18.9667 29.4835 18.88 30.0035 18.88C30.5235 18.88 30.9602 18.9667 31.3135 19.14C31.6668 19.3133 31.9335 19.5433 32.1135 19.83C32.2935 20.11 32.3835 20.4167 32.3835 20.75C32.3835 21.07 32.2868 21.3667 32.0935 21.64C31.9068 21.9067 31.6568 22.1067 31.3435 22.24C31.7168 22.38 32.0135 22.61 32.2335 22.93C32.4535 23.25 32.5635 23.6233 32.5635 24.05C32.5635 24.4633 32.4502 24.8267 32.2235 25.14C31.9968 25.4533 31.6868 25.6967 31.2935 25.87C30.9068 26.0367 30.4768 26.12 30.0035 26.12ZM30.0035 21.86C30.3502 21.86 30.6235 21.77 30.8235 21.59C31.0235 21.41 31.1235 21.18 31.1235 20.9C31.1235 20.5933 31.0235 20.3533 30.8235 20.18C30.6302 20.0067 30.3568 19.92 30.0035 19.92C29.6435 19.92 29.3668 20.0067 29.1735 20.18C28.9802 20.3533 28.8835 20.5933 28.8835 20.9C28.8835 21.1867 28.9802 21.42 29.1735 21.6C29.3735 21.7733 29.6502 21.86 30.0035 21.86ZM30.0035 25.05C30.4302 25.05 30.7535 24.9467 30.9735 24.74C31.1935 24.5267 31.3035 24.26 31.3035 23.94C31.3035 23.5867 31.1868 23.31 30.9535 23.11C30.7268 22.91 30.4102 22.81 30.0035 22.81C29.5968 22.81 29.2735 22.91 29.0335 23.11C28.8002 23.31 28.6835 23.5867 28.6835 23.94C28.6835 24.26 28.7935 24.5267 29.0135 24.74C29.2402 24.9467 29.5702 25.05 30.0035 25.05ZM33.7926 26V18.8H35.0726V23.05L36.8326 21.04H38.3526L36.3226 23.3L38.6826 26H37.0826L35.0726 23.51V26H33.7926Z" fill="white"/>
</g>
</g>
</g>
</svg>
