<svg width="58" height="31" viewBox="0 0 58 31" fill="none" xmlns="http://www.w3.org/2000/svg">
<g id="button">
<rect width="58" height="31" rx="5" fill="#282B32"/>
<g id="contents">
<path id="6 PM" d="M11.31 12.12C10.7833 12.12 10.34 12.0233 9.98 11.83C9.62 11.6367 9.33 11.3767 9.11 11.05C8.89 10.7233 8.73 10.36 8.63 9.96C8.53667 9.56 8.49 9.15 8.49 8.73C8.49 7.95 8.6 7.27333 8.82 6.7C9.04 6.12 9.35667 5.67333 9.77 5.36C10.1833 5.04 10.6833 4.88 11.27 4.88C11.75 4.88 12.1567 4.97667 12.49 5.17C12.83 5.35667 13.0933 5.60333 13.28 5.91C13.4667 6.21667 13.5767 6.54667 13.61 6.9H12.42C12.36 6.59333 12.23 6.35667 12.03 6.19C11.83 6.02333 11.5733 5.94 11.26 5.94C10.8133 5.94 10.4533 6.14667 10.18 6.56C9.90667 6.96667 9.76 7.59 9.74 8.43C9.9 8.15667 10.14 7.93 10.46 7.75C10.78 7.57 11.1367 7.48 11.53 7.48C11.9167 7.48 12.28 7.57333 12.62 7.76C12.96 7.94667 13.2333 8.21 13.44 8.55C13.6533 8.89 13.76 9.29 13.76 9.75C13.76 10.17 13.6567 10.56 13.45 10.92C13.25 11.28 12.9633 11.57 12.59 11.79C12.2233 12.01 11.7967 12.12 11.31 12.12ZM11.24 11.02C11.6133 11.02 11.92 10.9067 12.16 10.68C12.4067 10.4467 12.53 10.1533 12.53 9.8C12.53 9.42667 12.4067 9.12667 12.16 8.9C11.9133 8.67333 11.6 8.56 11.22 8.56C10.9733 8.56 10.75 8.61667 10.55 8.73C10.3567 8.83667 10.2033 8.98333 10.09 9.17C9.97667 9.35 9.92 9.55333 9.92 9.78C9.92 10.14 10.0433 10.4367 10.29 10.67C10.5433 10.9033 10.86 11.02 11.24 11.02ZM17.4007 12V5H19.9907C20.5507 5 21.014 5.09333 21.3807 5.28C21.7474 5.46667 22.0207 5.72333 22.2007 6.05C22.3807 6.37667 22.4707 6.74333 22.4707 7.15C22.4707 7.53667 22.384 7.89333 22.2107 8.22C22.0374 8.54 21.7674 8.8 21.4007 9C21.034 9.19333 20.564 9.29 19.9907 9.29H18.6807V12H17.4007ZM18.6807 8.25H19.9107C20.3574 8.25 20.6774 8.15333 20.8707 7.96C21.0707 7.76 21.1707 7.49 21.1707 7.15C21.1707 6.80333 21.0707 6.53333 20.8707 6.34C20.6774 6.14 20.3574 6.04 19.9107 6.04H18.6807V8.25ZM23.4749 12V5H24.9949L27.2249 9.44L29.4249 5H30.9449V12H29.6649V7.17L27.7149 11H26.7049L24.7549 7.17V12H23.4749Z" fill="white"/>
<g id="oval/text">
<circle id="Ellipse 21" cx="11" cy="22.5" r="3" fill="#2884FF"/>
<path id="40k" d="M20.88 26V24.7H17.43V23.68L20.71 19H22.16V23.59H23.08V24.7H22.16V26H20.88ZM18.8 23.59H20.96V20.41L18.8 23.59ZM26.9563 26.12C26.3096 26.12 25.7563 25.97 25.2963 25.67C24.8363 25.3633 24.4796 24.94 24.2263 24.4C23.9796 23.8533 23.8563 23.22 23.8563 22.5C23.8563 21.7867 23.9796 21.1567 24.2263 20.61C24.4796 20.0633 24.8363 19.64 25.2963 19.34C25.7563 19.0333 26.3096 18.88 26.9563 18.88C27.6029 18.88 28.1563 19.0333 28.6163 19.34C29.0763 19.64 29.4296 20.0633 29.6763 20.61C29.9296 21.1567 30.0563 21.7867 30.0563 22.5C30.0563 23.22 29.9296 23.8533 29.6763 24.4C29.4296 24.94 29.0763 25.3633 28.6163 25.67C28.1563 25.97 27.6029 26.12 26.9563 26.12ZM26.9563 24.97C27.4829 24.97 27.9129 24.75 28.2463 24.31C28.5796 23.87 28.7463 23.2667 28.7463 22.5C28.7463 21.7333 28.5796 21.13 28.2463 20.69C27.9129 20.25 27.4829 20.03 26.9563 20.03C26.4229 20.03 25.9896 20.25 25.6563 20.69C25.3296 21.13 25.1663 21.7333 25.1663 22.5C25.1663 23.2667 25.3296 23.87 25.6563 24.31C25.9896 24.75 26.4229 24.97 26.9563 24.97ZM31.1559 26V18.8H32.4359V23.05L34.1959 21.04H35.7159L33.6859 23.3L36.0459 26H34.4459L32.4359 23.51V26H31.1559Z" fill="white"/>
</g>
</g>
</g>
</svg>
