<svg width="58" height="31" viewBox="0 0 58 31" fill="none" xmlns="http://www.w3.org/2000/svg">
<g id="button">
<rect width="58" height="31" rx="5" fill="#282B32"/>
<g id="contents">
<path id="7 PM" d="M9.08 12L11.72 6.09H8.27V5H13.04V5.91L10.41 12H9.08ZM16.4046 12V5H18.9946C19.5546 5 20.0179 5.09333 20.3846 5.28C20.7513 5.46667 21.0246 5.72333 21.2046 6.05C21.3846 6.37667 21.4746 6.74333 21.4746 7.15C21.4746 7.53667 21.3879 7.89333 21.2146 8.22C21.0413 8.54 20.7713 8.8 20.4046 9C20.0379 9.19333 19.5679 9.29 18.9946 9.29H17.6846V12H16.4046ZM17.6846 8.25H18.9146C19.3613 8.25 19.6813 8.15333 19.8746 7.96C20.0746 7.76 20.1746 7.49 20.1746 7.15C20.1746 6.80333 20.0746 6.53333 19.8746 6.34C19.6813 6.14 19.3613 6.04 18.9146 6.04H17.6846V8.25ZM22.4788 12V5H23.9988L26.2288 9.44L28.4288 5H29.9488V12H28.6688V7.17L26.7188 11H25.7088L23.7588 7.17V12H22.4788Z" fill="white"/>
<g id="oval/text">
<circle id="Ellipse 21" cx="11" cy="22.5" r="3" fill="#2884FF"/>
<path id="60k" d="M20.31 26.12C19.7833 26.12 19.34 26.0233 18.98 25.83C18.62 25.6367 18.33 25.3767 18.11 25.05C17.89 24.7233 17.73 24.36 17.63 23.96C17.5367 23.56 17.49 23.15 17.49 22.73C17.49 21.95 17.6 21.2733 17.82 20.7C18.04 20.12 18.3567 19.6733 18.77 19.36C19.1833 19.04 19.6833 18.88 20.27 18.88C20.75 18.88 21.1567 18.9767 21.49 19.17C21.83 19.3567 22.0933 19.6033 22.28 19.91C22.4667 20.2167 22.5767 20.5467 22.61 20.9H21.42C21.36 20.5933 21.23 20.3567 21.03 20.19C20.83 20.0233 20.5733 19.94 20.26 19.94C19.8133 19.94 19.4533 20.1467 19.18 20.56C18.9067 20.9667 18.76 21.59 18.74 22.43C18.9 22.1567 19.14 21.93 19.46 21.75C19.78 21.57 20.1367 21.48 20.53 21.48C20.9167 21.48 21.28 21.5733 21.62 21.76C21.96 21.9467 22.2333 22.21 22.44 22.55C22.6533 22.89 22.76 23.29 22.76 23.75C22.76 24.17 22.6567 24.56 22.45 24.92C22.25 25.28 21.9633 25.57 21.59 25.79C21.2233 26.01 20.7967 26.12 20.31 26.12ZM20.24 25.02C20.6133 25.02 20.92 24.9067 21.16 24.68C21.4067 24.4467 21.53 24.1533 21.53 23.8C21.53 23.4267 21.4067 23.1267 21.16 22.9C20.9133 22.6733 20.6 22.56 20.22 22.56C19.9733 22.56 19.75 22.6167 19.55 22.73C19.3567 22.8367 19.2033 22.9833 19.09 23.17C18.9767 23.35 18.92 23.5533 18.92 23.78C18.92 24.14 19.0433 24.4367 19.29 24.67C19.5433 24.9033 19.86 25.02 20.24 25.02ZM26.8879 26.12C26.2412 26.12 25.6879 25.97 25.2279 25.67C24.7679 25.3633 24.4112 24.94 24.1579 24.4C23.9112 23.8533 23.7879 23.22 23.7879 22.5C23.7879 21.7867 23.9112 21.1567 24.1579 20.61C24.4112 20.0633 24.7679 19.64 25.2279 19.34C25.6879 19.0333 26.2412 18.88 26.8879 18.88C27.5346 18.88 28.0879 19.0333 28.5479 19.34C29.0079 19.64 29.3612 20.0633 29.6079 20.61C29.8612 21.1567 29.9879 21.7867 29.9879 22.5C29.9879 23.22 29.8612 23.8533 29.6079 24.4C29.3612 24.94 29.0079 25.3633 28.5479 25.67C28.0879 25.97 27.5346 26.12 26.8879 26.12ZM26.8879 24.97C27.4146 24.97 27.8446 24.75 28.1779 24.31C28.5112 23.87 28.6779 23.2667 28.6779 22.5C28.6779 21.7333 28.5112 21.13 28.1779 20.69C27.8446 20.25 27.4146 20.03 26.8879 20.03C26.3546 20.03 25.9212 20.25 25.5879 20.69C25.2612 21.13 25.0979 21.7333 25.0979 22.5C25.0979 23.2667 25.2612 23.87 25.5879 24.31C25.9212 24.75 26.3546 24.97 26.8879 24.97ZM31.0875 26V18.8H32.3675V23.05L34.1275 21.04H35.6475L33.6175 23.3L35.9775 26H34.3775L32.3675 23.51V26H31.0875Z" fill="white"/>
</g>
</g>
</g>
</svg>
