<svg width="112" height="95" viewBox="0 0 112 95" fill="none" xmlns="http://www.w3.org/2000/svg">
<g id="pie chart">
<path id="Ellipse 20" d="M95.6591 87.1017C98.0928 89.0103 101.64 88.5975 103.296 85.9855C108.06 78.4714 110.98 69.9056 111.777 60.9906C112.742 50.2102 110.562 39.3814 105.501 29.8142C100.439 20.247 92.7144 12.3514 83.2599 7.08276C73.8055 1.81411 63.0268 -0.601856 52.228 0.127182C41.4292 0.85622 31.073 4.69902 22.4125 11.1906C13.752 17.6822 7.15823 26.5445 3.42902 36.7051C-0.300193 46.8658 -1.00505 57.8894 1.39972 68.4423C3.3884 77.1691 7.43321 85.2648 13.1639 92.0704C15.156 94.4361 18.7261 94.3684 20.8812 92.1501V92.1501C23.0362 89.9317 22.9529 86.4055 21.0205 83.9907C16.8115 78.7307 13.8272 72.5689 12.3198 65.9538C10.396 57.5115 10.9598 48.6926 13.9432 40.5641C16.9266 32.4356 22.2016 25.3458 29.13 20.1525C36.0584 14.9592 44.3433 11.885 52.9824 11.3017C61.6214 10.7185 70.2444 12.6513 77.8079 16.8662C85.3715 21.0811 91.5516 27.3976 95.6004 35.0514C99.6493 42.7051 101.393 51.3682 100.622 59.9925C100.017 66.7502 97.8882 73.2571 94.4243 79.0351C92.834 81.6878 93.2254 85.1932 95.6591 87.1017V87.1017Z" fill="#FFBBBF"/>
<path id="Ellipse 19" d="M20.8528 92.1224C18.6959 94.3391 15.1258 94.4041 13.1356 92.0367C6.77094 84.4663 2.50222 75.3165 0.812389 65.5041C-1.19539 53.8454 0.5406 41.8504 5.77139 31.2394C11.0022 20.6284 19.459 11.9465 29.9291 6.43887C38.7411 1.80343 48.5981 -0.383022 58.4788 0.0548308C61.5685 0.191751 63.6912 3.06302 63.2465 6.12368V6.12368C62.8018 9.18434 59.9558 11.2679 56.8635 11.2083C49.3357 11.0631 41.86 12.8178 35.1432 16.3511C26.7672 20.7572 20.0017 27.7027 15.8171 36.1915C11.6325 44.6803 10.2437 54.2764 11.8499 63.6033C13.1379 71.0825 16.2989 78.0806 20.9985 83.9631C22.9289 86.3795 23.0096 89.9058 20.8528 92.1224V92.1224Z" fill="white"/>
</g>
</svg>
