<svg width="112" height="95" viewBox="0 0 112 95" fill="none" xmlns="http://www.w3.org/2000/svg">
<g id="Frame 1000003119">
<path id="Ellipse 20" d="M95.6591 87.1017C98.0928 89.0103 101.64 88.5975 103.296 85.9855C108.06 78.4714 110.98 69.9056 111.777 60.9906C112.742 50.2102 110.562 39.3814 105.501 29.8142C100.439 20.247 92.7144 12.3514 83.2599 7.08276C73.8055 1.81411 63.0268 -0.601856 52.228 0.127182C41.4292 0.85622 31.073 4.69902 22.4125 11.1906C13.752 17.6822 7.15823 26.5445 3.42902 36.7051C-0.300193 46.8658 -1.00505 57.8894 1.39972 68.4423C3.3884 77.1691 7.43321 85.2648 13.1639 92.0704C15.156 94.4361 18.7261 94.3684 20.8812 92.1501C23.0362 89.9317 22.9529 86.4055 21.0205 83.9907C16.8115 78.7307 13.8272 72.5689 12.3198 65.9538C10.396 57.5115 10.9598 48.6926 13.9432 40.5641C16.9266 32.4356 22.2016 25.3458 29.13 20.1525C36.0584 14.9592 44.3433 11.885 52.9824 11.3017C61.6214 10.7185 70.2444 12.6513 77.8079 16.8662C85.3715 21.0811 91.5516 27.3976 95.6004 35.0514C99.6493 42.7051 101.393 51.3682 100.622 59.9925C100.017 66.7502 97.8882 73.2571 94.4243 79.0351C92.8341 81.6878 93.2254 85.1932 95.6591 87.1017Z" fill="#FBE273"/>
<path id="Ellipse 19" d="M20.8528 92.1224C18.6959 94.3391 15.1257 94.4039 13.1354 92.0366C5.53733 82.9993 0.957527 71.7477 0.134156 59.8739C-0.689216 48.0002 2.29377 36.2242 8.57173 26.2246C10.2162 23.6053 13.7613 23.1767 16.2034 25.0744C18.6455 26.9722 19.0523 30.476 17.4738 33.1356C12.851 40.9248 10.6747 49.9759 11.3073 59.0992C11.94 68.2224 15.3447 76.8865 20.9983 83.9631C22.9288 86.3794 23.0096 89.9058 20.8528 92.1224Z" fill="white"/>
</g>
</svg>
