<svg width="451" height="164" viewBox="0 0 451 164" fill="none" xmlns="http://www.w3.org/2000/svg">
<g id="Frame 1000003120">
<path id="Vector 2" d="M18.4806 114.223C12.0877 127.684 4.16315 130.114 1 129.647V164H451V93.1901C430.523 93.1901 426.028 56.0324 404.052 64.4454C385.31 71.6208 392.065 92.489 368.592 96.6955C345.118 100.902 352.609 120.533 334.13 124.038C315.65 127.543 314.651 120.533 304.663 113.522C294.674 106.511 288.68 107.212 280.689 107.913C272.698 108.614 257.215 123.337 246.727 121.935C236.239 120.533 231.744 104.407 227.249 85.4781C222.754 66.5487 218.758 55.3313 217.26 51.8258L217.221 51.7359C215.702 48.1788 212.168 39.9073 200.778 39.9073C189.291 39.9073 175.806 62.3422 162.321 56.7335C148.836 51.1248 141.344 18.1735 136.849 10.4615C132.354 2.74954 127.859 -0.0548128 119.368 1.34736C110.878 2.74954 99.8901 25.1844 97.8923 27.9887C95.8946 30.7931 91.899 37.1029 82.4095 37.1029C72.9201 37.1029 67.9256 50.4236 63.9301 60.2388C59.9345 70.054 55.939 79.8693 50.9445 84.7769C45.9501 89.6845 45.4506 87.5813 38.9578 88.9834C32.465 90.3856 26.4717 97.3965 18.4806 114.223Z" fill="url(#paint0_linear_300_6853)"/>
<path id="Vector 3" d="M1 129.947C4.16315 130.415 12.0877 127.979 18.4806 114.487C26.4717 97.6216 32.465 90.5944 38.9578 89.1889C45.4506 87.7834 45.9501 89.8916 50.9445 84.9725C55.939 80.0535 59.9345 70.2153 63.9301 60.3771C67.9256 50.539 72.9201 37.1872 82.4095 37.1872C91.899 37.1872 95.8946 30.8627 97.8923 28.0518C99.8901 25.2409 110.878 2.75363 119.368 1.34818C127.859 -0.0572762 132.354 2.75363 136.849 10.4836C141.344 18.2136 148.836 51.2418 162.321 56.8636C175.806 62.4854 189.291 39.9982 200.778 39.9982C212.265 39.9982 215.761 48.4309 217.26 51.9445C218.758 55.4582 222.754 66.7018 227.249 85.6754C231.744 104.649 236.239 120.812 246.727 122.217C257.215 123.623 272.698 108.865 280.689 108.163C288.68 107.46 294.674 106.757 304.663 113.784C314.651 120.812 315.65 127.839 334.13 124.325C352.609 120.812 345.118 101.135 368.592 96.919C392.065 92.7026 385.31 71.7857 404.052 64.5936C426.028 56.1609 430.523 93.4054 451 93.4054" stroke="#FF764C"/>
</g>
<defs>
<linearGradient id="paint0_linear_300_6853" x1="218.259" y1="-76.8208" x2="217.274" y2="140.514" gradientUnits="userSpaceOnUse">
<stop stop-color="#FF764C" stop-opacity="0.24"/>
<stop offset="1" stop-color="#FF7E07" stop-opacity="0"/>
</linearGradient>
</defs>
</svg>
