<svg width="11" height="14" viewBox="0 0 11 14" fill="none" xmlns="http://www.w3.org/2000/svg">
<path id="Vector" d="M10.5587 5.05407C10.5034 4.9444 10.4188 4.85218 10.3144 4.78762C10.2099 4.72306 10.0896 4.68869 9.9668 4.68832H6.6418V0.698312C6.64894 0.552466 6.60787 0.408326 6.52494 0.28814C6.44201 0.167953 6.32183 0.078403 6.18295 0.0333112C6.04943 -0.0106167 5.90543 -0.0111103 5.77162 0.0319011C5.63781 0.0749125 5.52106 0.159217 5.43815 0.272712L0.11814 7.58772C0.0514845 7.68406 0.0114601 7.79629 0.00211805 7.91307C-0.00722397 8.02984 0.014448 8.14702 0.0649404 8.25272C0.111438 8.37359 0.192214 8.47824 0.297351 8.55385C0.402489 8.62945 0.527414 8.67272 0.656791 8.67832H3.9818V12.6683C3.9819 12.8086 4.02633 12.9452 4.10874 13.0586C4.19115 13.1721 4.30732 13.2566 4.44065 13.3001C4.50746 13.3208 4.57686 13.332 4.6468 13.3333C4.75172 13.3336 4.85523 13.309 4.94885 13.2617C5.04246 13.2143 5.12354 13.1454 5.18545 13.0607L10.5055 5.74567C10.5771 5.64645 10.62 5.52938 10.6294 5.40736C10.6388 5.28533 10.6143 5.16308 10.5587 5.05407V5.05407ZM5.3118 10.6201V8.01332C5.3118 7.83695 5.24174 7.66781 5.11702 7.5431C4.99231 7.41838 4.82317 7.34832 4.6468 7.34832H1.98679L5.3118 2.74652V5.35332C5.3118 5.52969 5.38186 5.69883 5.50657 5.82355C5.63128 5.94826 5.80043 6.01832 5.9768 6.01832H8.6368L5.3118 10.6201Z" fill="#72767C"/>
</svg>
