<svg width="14" height="14" viewBox="0 0 14 14" fill="none" xmlns="http://www.w3.org/2000/svg">
<path id="Vector" d="M8.00387 6.00387H7.3372V5.3372C7.3372 5.16039 7.26696 4.99082 7.14194 4.86579C7.01691 4.74077 6.84734 4.67053 6.67053 4.67053C6.49372 4.67053 6.32415 4.74077 6.19913 4.86579C6.0741 4.99082 6.00387 5.16039 6.00387 5.3372V6.00387H5.3372C5.16039 6.00387 4.99082 6.0741 4.86579 6.19913C4.74077 6.32415 4.67053 6.49372 4.67053 6.67053C4.67053 6.84734 4.74077 7.01691 4.86579 7.14194C4.99082 7.26696 5.16039 7.3372 5.3372 7.3372H6.00387V8.00387C6.00387 8.18068 6.0741 8.35025 6.19913 8.47527C6.32415 8.60029 6.49372 8.67053 6.67053 8.67053C6.84734 8.67053 7.01691 8.60029 7.14194 8.47527C7.26696 8.35025 7.3372 8.18068 7.3372 8.00387V7.3372H8.00387C8.18068 7.3372 8.35025 7.26696 8.47527 7.14194C8.60029 7.01691 8.67053 6.84734 8.67053 6.67053C8.67053 6.49372 8.60029 6.32415 8.47527 6.19913C8.35025 6.0741 8.18068 6.00387 8.00387 6.00387ZM13.1439 6.1972L11.5772 4.67053V2.43053C11.5772 2.25372 11.507 2.08415 11.3819 1.95913C11.2569 1.8341 11.0873 1.76387 10.9105 1.76387H8.70387L7.14387 0.197199C7.08189 0.134713 7.00816 0.0851171 6.92692 0.0512713C6.84568 0.0174255 6.75854 0 6.67053 0C6.58252 0 6.49539 0.0174255 6.41415 0.0512713C6.33291 0.0851171 6.25917 0.134713 6.1972 0.197199L4.67053 1.76387H2.43053C2.25372 1.76387 2.08415 1.8341 1.95913 1.95913C1.8341 2.08415 1.76387 2.25372 1.76387 2.43053V4.67053L0.197199 6.1972C0.134713 6.25917 0.0851171 6.33291 0.0512713 6.41415C0.0174255 6.49539 0 6.58252 0 6.67053C0 6.75854 0.0174255 6.84568 0.0512713 6.92692C0.0851171 7.00816 0.134713 7.08189 0.197199 7.14387L1.76387 8.70387V10.9105C1.76387 11.0873 1.8341 11.2569 1.95913 11.3819C2.08415 11.507 2.25372 11.5772 2.43053 11.5772H4.67053L6.23053 13.1439C6.29251 13.2064 6.36624 13.2559 6.44748 13.2898C6.52872 13.3236 6.61586 13.3411 6.70387 13.3411C6.79187 13.3411 6.87901 13.3236 6.96025 13.2898C7.04149 13.2559 7.11522 13.2064 7.1772 13.1439L8.7372 11.5772H10.9439C11.1207 11.5772 11.2902 11.507 11.4153 11.3819C11.5403 11.2569 11.6105 11.0873 11.6105 10.9105V8.70387L13.1772 7.14387C13.2376 7.07972 13.2846 7.00424 13.3156 6.92181C13.3466 6.83937 13.361 6.75161 13.3579 6.66358C13.3548 6.57556 13.3343 6.48902 13.2976 6.40897C13.2608 6.32892 13.2086 6.25694 13.1439 6.1972ZM10.4439 7.9572C10.3809 8.01894 10.3308 8.09257 10.2964 8.17382C10.2621 8.25507 10.2442 8.34233 10.2439 8.43053V10.2439H8.43053C8.34233 10.2442 8.25507 10.2621 8.17382 10.2964C8.09257 10.3308 8.01894 10.3809 7.9572 10.4439L6.67053 11.7305L5.38387 10.4439C5.32212 10.3809 5.24849 10.3308 5.16724 10.2964C5.08599 10.2621 4.99874 10.2442 4.91053 10.2439H3.0972V8.43053C3.09683 8.34233 3.07897 8.25507 3.04464 8.17382C3.0103 8.09257 2.96019 8.01894 2.8972 7.9572L1.61053 6.67053L2.8972 5.38387C2.96019 5.32212 3.0103 5.24849 3.04464 5.16724C3.07897 5.08599 3.09683 4.99874 3.0972 4.91053V3.0972H4.91053C4.99874 3.09683 5.08599 3.07897 5.16724 3.04464C5.24849 3.0103 5.32212 2.96019 5.38387 2.8972L6.67053 1.61053L7.9572 2.8972C8.01894 2.96019 8.09257 3.0103 8.17382 3.04464C8.25507 3.07897 8.34233 3.09683 8.43053 3.0972H10.2439V4.91053C10.2442 4.99874 10.2621 5.08599 10.2964 5.16724C10.3308 5.24849 10.3809 5.32212 10.4439 5.38387L11.7305 6.67053L10.4439 7.9572Z" fill="#72767C"/>
</svg>
