<svg width="38" height="38" viewBox="0 0 38 38" fill="none" xmlns="http://www.w3.org/2000/svg">
<g id="Frame 16">
<circle id="Ellipse 22" cx="19" cy="19" r="19" fill="#FFDE46"/>
<g id="tier">
<path id="Vector" fill-rule="evenodd" clip-rule="evenodd" d="M19.7601 27.9996C19.3386 27.9996 17.0559 27.7702 16.9289 27.7446C14.2643 27.2038 12.2002 23.137 12.2002 18.5496C12.2002 13.9659 14.2615 9.89935 16.9232 9.35463C17.0512 9.32853 19.3385 9.09961 19.7598 9.09961C22.8912 9.09961 25.4297 13.3302 25.4297 18.5493C25.4297 23.7685 22.8912 27.9991 19.7598 27.9991L19.7601 27.9996ZM20.7051 24.2197C22.2709 24.2197 23.5401 21.6812 23.5401 18.5498C23.5401 15.4184 22.2709 12.8799 20.7051 12.8799C19.1394 12.8799 17.8702 15.4184 17.8702 18.5498C17.8702 21.6812 19.1394 24.2197 20.7051 24.2197ZM19.9557 14.2176C20.2163 13.9645 20.5011 13.8249 20.7993 13.8249C21.0983 13.8249 21.3838 13.9651 21.6449 14.2196C21.7099 14.2829 21.6165 14.7803 21.365 15.7118C21.175 16.3474 20.9864 16.6662 20.7993 16.668C20.6121 16.6697 20.4246 16.3544 20.2368 15.7221C19.9847 14.7821 19.891 14.2806 19.9557 14.2176L19.9557 14.2176ZM22.2582 15.2888C22.4389 15.8062 22.5821 16.4144 22.6741 17.0965C22.7665 17.7804 22.7993 18.4765 22.7794 19.1524C22.7744 19.3204 22.5489 19.2607 22.1027 18.9733C21.7925 18.7352 21.6082 18.4025 21.5497 17.975C21.4913 17.5476 21.5581 17.0214 21.7501 16.3965C22.0439 15.5294 22.2133 15.1602 22.2583 15.2888L22.2582 15.2888ZM22.546 20.885C22.3971 21.4579 22.201 21.9732 21.9596 22.3948C21.7177 22.8176 21.4524 23.1075 21.179 23.2706C21.111 23.3113 21.0649 22.777 21.0407 21.6681C21.039 20.8851 21.1137 20.3607 21.2646 20.0949C21.4157 19.829 21.6444 19.819 21.9509 20.0652C22.3846 20.4694 22.583 20.7426 22.546 20.8849L22.546 20.885ZM20.4215 23.2725C20.1488 23.1093 19.8844 22.8196 19.643 22.398C19.4011 21.9752 19.2045 21.4584 19.0554 20.8835C19.0184 20.7405 19.2154 20.47 19.6466 20.0719C19.9558 19.8263 20.1862 19.8348 20.338 20.098C20.4898 20.3611 20.5643 20.8811 20.5618 21.6581C20.536 22.775 20.4892 23.3132 20.4215 23.2725L20.4215 23.2725ZM18.8207 19.1517C18.8009 18.4776 18.8338 17.7834 18.9261 17.1013C19.0184 16.4174 19.1621 15.8078 19.3434 15.2894C19.3885 15.1605 19.5563 15.5275 19.8471 16.3905C20.0398 17.0216 20.1077 17.5514 20.0504 17.9798C19.9933 18.4083 19.8107 18.7396 19.5026 18.9738C19.0528 19.2598 18.8255 19.3191 18.8207 19.1517L18.8207 19.1517Z" fill="white"/>
</g>
</g>
</svg>
