<svg width="17" height="17" viewBox="0 0 17 17" fill="none" xmlns="http://www.w3.org/2000/svg">
<path id="Vector" d="M2.91667 12.9167H1.66667V3.75H8.16667L7.5 4.41667C7.33333 4.58333 7.25 4.75 7.25 5C7.25 5.5 7.58333 5.83333 8.08333 5.83333C8.33333 5.83333 8.5 5.75 8.66667 5.58333L10.75 3.5C11.0833 3.16667 11.0833 2.66667 10.75 2.33333L8.66667 0.25C8.33333 -0.0833333 7.83333 -0.0833333 7.5 0.25C7.16667 0.583333 7.16667 1.08333 7.5 1.41667L8.16667 2.08333H0.833333C0.333333 2.08333 0 2.41667 0 2.91667V13.75C0 14.25 0.333333 14.5833 0.833333 14.5833H2.91667C3.41667 14.5833 3.75 14.25 3.75 13.75C3.75 13.25 3.41667 12.9167 2.91667 12.9167ZM15.8333 2.08333H13.75C13.25 2.08333 12.9167 2.41667 12.9167 2.91667C12.9167 3.41667 13.25 3.75 13.75 3.75H15V12.9167H8L8.66667 12.25C9 11.9167 9 11.4167 8.66667 11.0833C8.33333 10.75 7.83333 10.75 7.5 11.0833L5.41667 13.1667C5.08333 13.5 5.08333 14 5.41667 14.3333L7.5 16.4167C7.66667 16.5833 7.83333 16.6667 8.08333 16.6667C8.33333 16.6667 8.5 16.5833 8.66667 16.4167C9 16.0833 9 15.5833 8.66667 15.25L8 14.5833H15.8333C16.3333 14.5833 16.6667 14.25 16.6667 13.75V2.91667C16.6667 2.41667 16.3333 2.08333 15.8333 2.08333Z" fill="#A162F7"/>
</svg>
