<svg width="44" height="44" viewBox="0 0 44 44" fill="none" xmlns="http://www.w3.org/2000/svg">
<g id="Frame 1000003121">
<g id="icon">
<rect width="44" height="44" rx="22" fill="white"/>
<g id="icons/Grid/Line">
<path id="Shape" fill-rule="evenodd" clip-rule="evenodd" d="M27.5 25C27.0478 25 26.4089 25.0625 25.7438 25.1536C25.4331 25.1962 25.1962 25.4331 25.1536 25.7438C25.0625 26.4089 25 27.0478 25 27.5C25 27.9522 25.0625 28.5911 25.1536 29.2562C25.1962 29.5669 25.4331 29.8038 25.7438 29.8464C26.4089 29.9375 27.0478 30 27.5 30C27.9522 30 28.5911 29.9375 29.2562 29.8464C29.5669 29.8038 29.8038 29.5669 29.8464 29.2562C29.9375 28.5911 30 27.9522 30 27.5C30 27.0478 29.9375 26.4089 29.8464 25.7438C29.8038 25.4331 29.5669 25.1962 29.2562 25.1536C28.5911 25.0625 27.9522 25 27.5 25ZM25.4724 23.1721C24.2725 23.3364 23.3364 24.2725 23.1721 25.4724C23.0778 26.1606 23 26.9082 23 27.5C23 28.0918 23.0778 28.8394 23.1721 29.5276C23.3364 30.7275 24.2725 31.6636 25.4724 31.8279C26.1606 31.9222 26.9082 32 27.5 32C28.0918 32 28.8394 31.9222 29.5276 31.8279C30.7275 31.6636 31.6636 30.7275 31.8279 29.5276C31.9222 28.8394 32 28.0918 32 27.5C32 26.9082 31.9222 26.1606 31.8279 25.4724C31.6636 24.2725 30.7275 23.3364 29.5276 23.1721C28.8394 23.0778 28.0918 23 27.5 23C26.9082 23 26.1606 23.0778 25.4724 23.1721Z" fill="#777E91"/>
<path id="Shape_2" fill-rule="evenodd" clip-rule="evenodd" d="M16.5 25C16.0478 25 15.4089 25.0625 14.7438 25.1536C14.4331 25.1962 14.1962 25.4331 14.1536 25.7438C14.0625 26.4089 14 27.0478 14 27.5C14 27.9522 14.0625 28.5911 14.1536 29.2562C14.1962 29.5669 14.4331 29.8038 14.7438 29.8464C15.4089 29.9375 16.0478 30 16.5 30C16.9522 30 17.5911 29.9375 18.2562 29.8464C18.5669 29.8038 18.8038 29.5669 18.8464 29.2562C18.9375 28.5911 19 27.9522 19 27.5C19 27.0478 18.9375 26.4089 18.8464 25.7438C18.8038 25.4331 18.5669 25.1962 18.2562 25.1536C17.5911 25.0625 16.9522 25 16.5 25ZM14.4724 23.1721C13.2725 23.3364 12.3364 24.2725 12.1721 25.4724C12.0778 26.1606 12 26.9082 12 27.5C12 28.0918 12.0778 28.8394 12.1721 29.5276C12.3364 30.7275 13.2725 31.6636 14.4724 31.8279C15.1606 31.9222 15.9082 32 16.5 32C17.0918 32 17.8394 31.9222 18.5276 31.8279C19.7275 31.6636 20.6636 30.7275 20.8279 29.5276C20.9222 28.8394 21 28.0918 21 27.5C21 26.9082 20.9222 26.1606 20.8279 25.4724C20.6636 24.2725 19.7275 23.3364 18.5276 23.1721C17.8394 23.0778 17.0918 23 16.5 23C15.9082 23 15.1606 23.0778 14.4724 23.1721Z" fill="#777E91"/>
<path id="Shape_3" fill-rule="evenodd" clip-rule="evenodd" d="M27.5 14C27.0478 14 26.4089 14.0625 25.7438 14.1536C25.4331 14.1962 25.1962 14.4331 25.1536 14.7438C25.0625 15.4089 25 16.0478 25 16.5C25 16.9522 25.0625 17.5911 25.1536 18.2562C25.1962 18.5669 25.4331 18.8038 25.7438 18.8464C26.4089 18.9375 27.0478 19 27.5 19C27.9522 19 28.5911 18.9375 29.2562 18.8464C29.5669 18.8038 29.8038 18.5669 29.8464 18.2562C29.9375 17.5911 30 16.9522 30 16.5C30 16.0478 29.9375 15.4089 29.8464 14.7438C29.8038 14.4331 29.5669 14.1962 29.2562 14.1536C28.5911 14.0625 27.9522 14 27.5 14ZM25.4724 12.1721C24.2725 12.3364 23.3364 13.2725 23.1721 14.4724C23.0778 15.1606 23 15.9082 23 16.5C23 17.0918 23.0778 17.8394 23.1721 18.5276C23.3364 19.7275 24.2725 20.6636 25.4724 20.8279C26.1606 20.9222 26.9082 21 27.5 21C28.0918 21 28.8394 20.9222 29.5276 20.8279C30.7275 20.6636 31.6636 19.7275 31.8279 18.5276C31.9222 17.8394 32 17.0918 32 16.5C32 15.9082 31.9222 15.1606 31.8279 14.4724C31.6636 13.2725 30.7275 12.3364 29.5276 12.1721C28.8394 12.0778 28.0918 12 27.5 12C26.9082 12 26.1606 12.0778 25.4724 12.1721Z" fill="#777E91"/>
<path id="Shape_4" fill-rule="evenodd" clip-rule="evenodd" d="M16.5 14C16.0478 14 15.4089 14.0625 14.7438 14.1536C14.4331 14.1962 14.1962 14.4331 14.1536 14.7438C14.0625 15.4089 14 16.0478 14 16.5C14 16.9522 14.0625 17.5911 14.1536 18.2562C14.1962 18.5669 14.4331 18.8038 14.7438 18.8464C15.4089 18.9375 16.0478 19 16.5 19C16.9522 19 17.5911 18.9375 18.2562 18.8464C18.5669 18.8038 18.8038 18.5669 18.8464 18.2562C18.9375 17.5911 19 16.9522 19 16.5C19 16.0478 18.9375 15.4089 18.8464 14.7438C18.8038 14.4331 18.5669 14.1962 18.2562 14.1536C17.5911 14.0625 16.9522 14 16.5 14ZM14.4724 12.1721C13.2725 12.3364 12.3364 13.2725 12.1721 14.4724C12.0778 15.1606 12 15.9082 12 16.5C12 17.0918 12.0778 17.8394 12.1721 18.5276C12.3364 19.7275 13.2725 20.6636 14.4724 20.8279C15.1606 20.9222 15.9082 21 16.5 21C17.0918 21 17.8394 20.9222 18.5276 20.8279C19.7275 20.6636 20.6636 19.7275 20.8279 18.5276C20.9222 17.8394 21 17.0918 21 16.5C21 15.9082 20.9222 15.1606 20.8279 14.4724C20.6636 13.2725 19.7275 12.3364 18.5276 12.1721C17.8394 12.0778 17.0918 12 16.5 12C15.9082 12 15.1606 12.0778 14.4724 12.1721Z" fill="#777E91"/>
</g>
</g>
</g>
</svg>
