<svg width="17" height="17" viewBox="0 0 17 17" fill="none" xmlns="http://www.w3.org/2000/svg">
<path id="Shape" fill-rule="evenodd" clip-rule="evenodd" d="M8.33333 16.6667C12.9357 16.6667 16.6667 12.9357 16.6667 8.33333C16.6667 3.73096 12.9357 0 8.33333 0C3.73096 0 0 3.73096 0 8.33333C0 12.9357 3.73096 16.6667 8.33333 16.6667ZM13.5998 12.4214C14.4774 11.2925 15 9.87396 15 8.33333C15 4.93365 12.4553 2.12833 9.16667 1.71824V5.10501C10.6044 5.47505 11.6667 6.78013 11.6667 8.33333C11.6667 8.95154 11.4984 9.53044 11.2051 10.0267L13.5998 12.4214ZM12.4213 13.5999L10.0266 11.2052C9.53032 11.4984 8.95147 11.6667 8.33333 11.6667C7.71519 11.6667 7.13635 11.4984 6.64011 11.2052L4.24537 13.5999C5.37426 14.4775 6.79277 15 8.33333 15C9.87389 15 11.2924 14.4775 12.4213 13.5999ZM5 8.33333C5 8.95154 5.16829 9.53044 5.46156 10.0267L3.06684 12.4214C2.18926 11.2925 1.66667 9.87396 1.66667 8.33333C1.66667 4.93365 4.21141 2.12833 7.5 1.71824V5.10501C6.06231 5.47505 5 6.78013 5 8.33333ZM8.33333 10C9.25381 10 10 9.25381 10 8.33333C10 7.41286 9.25381 6.66667 8.33333 6.66667C7.41286 6.66667 6.66667 7.41286 6.66667 8.33333C6.66667 9.25381 7.41286 10 8.33333 10Z" fill="#72767C"/>
</svg>
