<svg width="20" height="19" viewBox="0 0 20 19" fill="none" xmlns="http://www.w3.org/2000/svg">
<path id="Vector" d="M10.9998 1.50018L11.0254 8.56319L18.0541 8.56319C18.1864 8.56186 18.3176 8.5868 18.4402 8.63657C18.5628 8.68634 18.6743 8.75993 18.7682 8.8531C18.8614 8.94705 18.935 9.05854 18.9848 9.18113C19.0345 9.30373 19.0595 9.43498 19.0582 9.56728C19.0574 9.83146 18.9521 10.0846 18.7653 10.2714C18.5785 10.4582 18.3253 10.5635 18.0611 10.5643L11.0608 10.5643L11.0254 17.6C11.0246 17.8642 10.9193 18.1173 10.7325 18.3041C10.5457 18.491 10.2926 18.5962 10.0284 18.597C9.89639 18.5976 9.47269 18.579 9.35063 18.5288C9.22856 18.4785 9.11765 18.4046 9.02431 18.3112C8.93096 18.2179 8.85702 18.107 8.80675 17.9849C8.75648 17.8628 8.73088 17.732 8.73142 17.6L8.69607 10.5643L1.70278 10.5643C1.57048 10.5656 1.43923 10.5407 1.31664 10.4909C1.19405 10.4412 1.08255 10.3676 0.988606 10.2744C0.895439 10.1804 0.82184 10.0689 0.772075 9.94635C0.722309 9.82376 0.697367 9.69251 0.698691 9.56021C0.699477 9.29602 0.804773 9.04288 0.99158 8.85608C1.17839 8.66927 1.43153 8.56397 1.69571 8.56319L8.69607 8.56319L8.73143 1.52747C8.73221 1.26329 8.83751 1.01015 9.02432 0.823341C9.21112 0.636533 9.46426 0.531238 9.72845 0.530453C9.86046 0.529911 10.2586 0.521146 10.3806 0.571415C10.5027 0.621683 10.6136 0.695623 10.7069 0.78897C10.8003 0.882316 10.8742 0.993222 10.9245 1.11529C10.9748 1.23735 11.0004 1.36817 10.9998 1.50018Z" fill="#808191"/>
</svg>
