<svg width="14" height="15" viewBox="0 0 14 15" fill="none" xmlns="http://www.w3.org/2000/svg">
<path id="Vector" d="M1.97022 1.06924L6.98262 6.04544L11.9526 1.07543C12.0452 0.980947 12.1557 0.905776 12.2776 0.854279C12.3994 0.802783 12.5303 0.775985 12.6626 0.775435C12.7949 0.775985 12.9258 0.802783 13.0477 0.85428C13.1696 0.905776 13.28 0.980947 13.3726 1.07543C13.5589 1.2628 13.6634 1.51625 13.6634 1.78043C13.6634 2.04462 13.5589 2.29807 13.3726 2.48543L8.42262 7.43544L13.3726 12.4354C13.5589 12.6228 13.6634 12.8763 13.6634 13.1404C13.6634 13.4046 13.5589 13.6581 13.3726 13.8454C13.2797 13.9392 12.967 14.2257 12.8451 14.2764C12.7232 14.3272 12.5925 14.3533 12.4605 14.3533C12.3285 14.3533 12.1978 14.3272 12.0759 14.2764C11.9541 14.2257 11.8435 14.1513 11.7505 14.0575L6.75052 9.10754L1.80552 14.0525C1.7129 14.147 1.60246 14.2222 1.48058 14.2737C1.35871 14.3252 1.22783 14.352 1.09552 14.3525C0.963212 14.352 0.832329 14.3252 0.710454 14.2737C0.588579 14.2222 0.478134 14.147 0.385519 14.0525C0.199268 13.8652 0.0947266 13.6117 0.0947266 13.3475C0.0947266 13.0834 0.199268 12.8299 0.385519 12.6425L5.33552 7.69254L0.385519 2.69254C0.199268 2.50517 0.0947266 2.25172 0.0947266 1.98754C0.0947266 1.72335 0.199268 1.4699 0.385519 1.28254C0.478482 1.18881 0.753781 0.901113 0.87564 0.850345C0.997499 0.799576 1.1282 0.773438 1.26022 0.773438C1.39223 0.773438 1.52293 0.799576 1.64479 0.850345C1.76665 0.901113 1.87725 0.975507 1.97022 1.06924Z" fill="#808191"/>
</svg>
