<svg width="43" height="43" viewBox="0 0 43 43" fill="none" xmlns="http://www.w3.org/2000/svg">
<g id="Frame 1000003113">
<g id="logo">
<rect width="43" height="43" rx="8" fill="#A162F7"/>
<path id="C." d="M18.2831 32.372C16.0925 32.372 14.2118 31.907 12.6411 30.977C11.0705 30.0263 9.86148 28.714 9.01414 27.04C8.16681 25.3453 7.74314 23.3923 7.74314 21.181C7.74314 18.9697 8.16681 17.0167 9.01414 15.322C9.86148 13.6273 11.0705 12.3047 12.6411 11.354C14.2118 10.4033 16.0925 9.928 18.2831 9.928C20.8871 9.928 23.0158 10.579 24.6691 11.881C26.3431 13.1623 27.3868 14.9707 27.8001 17.306H23.4291C23.1605 16.128 22.5818 15.2083 21.6931 14.547C20.8251 13.865 19.6678 13.524 18.2211 13.524C16.2165 13.524 14.6458 14.206 13.5091 15.57C12.3725 16.934 11.8041 18.8043 11.8041 21.181C11.8041 23.5577 12.3725 25.428 13.5091 26.792C14.6458 28.1353 16.2165 28.807 18.2211 28.807C19.6678 28.807 20.8251 28.497 21.6931 27.877C22.5818 27.2363 23.1605 26.358 23.4291 25.242H27.8001C27.3868 27.474 26.3431 29.2203 24.6691 30.481C23.0158 31.7417 20.8871 32.372 18.2831 32.372ZM32.9246 32.217C32.2013 32.217 31.6019 31.9897 31.1266 31.535C30.6719 31.0803 30.4446 30.5327 30.4446 29.892C30.4446 29.2307 30.6719 28.6727 31.1266 28.218C31.6019 27.7633 32.2013 27.536 32.9246 27.536C33.6479 27.536 34.2369 27.7633 34.6916 28.218C35.1669 28.6727 35.4046 29.2307 35.4046 29.892C35.4046 30.5327 35.1669 31.0803 34.6916 31.535C34.2369 31.9897 33.6479 32.217 32.9246 32.217Z" fill="white"/>
</g>
</g>
</svg>
